<mxfile host="65bd71144e">
    <diagram id="gl3e3n9GDmqvepaMGc3e" name="Page-1">
        <mxGraphModel dx="779" dy="570" grid="1" gridSize="10" guides="1" tooltips="1" connect="1" arrows="1" fold="1" page="1" pageScale="1" pageWidth="850" pageHeight="1100" math="0" shadow="0">
            <root>
                <mxCell id="0"/>
                <mxCell id="1" parent="0"/>
                <mxCell id="11" value="" style="edgeStyle=none;html=1;" parent="1" source="2" target="7" edge="1">
                    <mxGeometry relative="1" as="geometry"/>
                </mxCell>
                <mxCell id="2" value="&lt;font data-font-src=&quot;https://fonts.googleapis.com/css?family=Kanit&quot; face=&quot;Kanit&quot;&gt;Start&lt;/font&gt;" style="strokeWidth=2;html=1;shape=mxgraph.flowchart.terminator;whiteSpace=wrap;" parent="1" vertex="1">
                    <mxGeometry x="262.5" y="10" width="105" height="40" as="geometry"/>
                </mxCell>
                <mxCell id="3" value="&lt;font face=&quot;Kanit&quot;&gt;Stop&lt;/font&gt;" style="strokeWidth=2;html=1;shape=mxgraph.flowchart.terminator;whiteSpace=wrap;" parent="1" vertex="1">
                    <mxGeometry x="100" y="450" width="100" height="40" as="geometry"/>
                </mxCell>
                <mxCell id="19" value="" style="edgeStyle=none;html=1;entryX=0.5;entryY=0;entryDx=0;entryDy=0;" parent="1" source="6" target="8" edge="1">
                    <mxGeometry relative="1" as="geometry"/>
                </mxCell>
                <mxCell id="22" value="" style="edgeStyle=none;html=1;endArrow=none;endFill=0;" parent="1" source="6" edge="1">
                    <mxGeometry relative="1" as="geometry">
                        <mxPoint x="150" y="280" as="targetPoint"/>
                    </mxGeometry>
                </mxCell>
                <mxCell id="6" value="&lt;font data-font-src=&quot;https://fonts.googleapis.com/css?family=Kanit&quot; face=&quot;Kanit&quot;&gt;i &amp;lt;= n&lt;/font&gt;" style="rhombus;whiteSpace=wrap;html=1;" parent="1" vertex="1">
                    <mxGeometry x="270" y="240" width="90" height="80" as="geometry"/>
                </mxCell>
                <mxCell id="29" value="" style="edgeStyle=none;html=1;" edge="1" parent="1" source="7" target="28">
                    <mxGeometry relative="1" as="geometry"/>
                </mxCell>
                <mxCell id="7" value="&lt;font data-font-src=&quot;https://fonts.googleapis.com/css?family=Kanit&quot; face=&quot;Kanit&quot;&gt;read&amp;nbsp; n&amp;nbsp;&lt;/font&gt;" style="shape=parallelogram;perimeter=parallelogramPerimeter;whiteSpace=wrap;html=1;fixedSize=1;" parent="1" vertex="1">
                    <mxGeometry x="235" y="80" width="160" height="50" as="geometry"/>
                </mxCell>
                <mxCell id="20" value="" style="edgeStyle=none;html=1;entryX=0.5;entryY=0;entryDx=0;entryDy=0;" parent="1" source="8" target="9" edge="1">
                    <mxGeometry relative="1" as="geometry"/>
                </mxCell>
                <mxCell id="8" value="&lt;font data-font-src=&quot;https://fonts.googleapis.com/css?family=Kanit&quot; face=&quot;Kanit&quot;&gt;sum += i&amp;nbsp;&lt;/font&gt;" style="rounded=0;whiteSpace=wrap;html=1;" parent="1" vertex="1">
                    <mxGeometry x="247.5" y="340" width="135" height="60" as="geometry"/>
                </mxCell>
                <mxCell id="14" value="" style="edgeStyle=none;html=1;" parent="1" source="9" target="10" edge="1">
                    <mxGeometry relative="1" as="geometry"/>
                </mxCell>
                <mxCell id="9" value="&lt;font data-font-src=&quot;https://fonts.googleapis.com/css?family=Kanit&quot; face=&quot;Kanit&quot;&gt;write&amp;nbsp; i&amp;nbsp;&lt;/font&gt;" style="shape=parallelogram;perimeter=parallelogramPerimeter;whiteSpace=wrap;html=1;fixedSize=1;" parent="1" vertex="1">
                    <mxGeometry x="235" y="430" width="160" height="60" as="geometry"/>
                </mxCell>
                <mxCell id="10" value="&lt;font data-font-src=&quot;https://fonts.googleapis.com/css?family=Kanit&quot; face=&quot;Kanit&quot;&gt;i += 1&amp;nbsp;&lt;/font&gt;" style="rounded=0;whiteSpace=wrap;html=1;" parent="1" vertex="1">
                    <mxGeometry x="247.5" y="520" width="135" height="60" as="geometry"/>
                </mxCell>
                <mxCell id="16" value="" style="endArrow=none;html=1;exitX=1;exitY=0.5;exitDx=0;exitDy=0;" parent="1" source="10" edge="1">
                    <mxGeometry width="50" height="50" relative="1" as="geometry">
                        <mxPoint x="310" y="420" as="sourcePoint"/>
                        <mxPoint x="440" y="550" as="targetPoint"/>
                    </mxGeometry>
                </mxCell>
                <mxCell id="17" value="" style="endArrow=none;html=1;" parent="1" edge="1">
                    <mxGeometry width="50" height="50" relative="1" as="geometry">
                        <mxPoint x="440" y="210" as="sourcePoint"/>
                        <mxPoint x="440" y="550" as="targetPoint"/>
                    </mxGeometry>
                </mxCell>
                <mxCell id="23" value="" style="edgeStyle=none;html=1;" parent="1" source="21" target="3" edge="1">
                    <mxGeometry relative="1" as="geometry"/>
                </mxCell>
                <mxCell id="21" value="&lt;font data-font-src=&quot;https://fonts.googleapis.com/css?family=Kanit&quot; face=&quot;Kanit&quot;&gt;write&amp;nbsp; sum&lt;/font&gt;" style="shape=parallelogram;perimeter=parallelogramPerimeter;whiteSpace=wrap;html=1;fixedSize=1;" parent="1" vertex="1">
                    <mxGeometry x="70" y="340" width="160" height="60" as="geometry"/>
                </mxCell>
                <mxCell id="24" value="&lt;font data-font-src=&quot;https://fonts.googleapis.com/css?family=Kanit&quot; face=&quot;Kanit&quot;&gt;True&lt;/font&gt;" style="text;html=1;align=center;verticalAlign=middle;resizable=0;points=[];autosize=1;strokeColor=none;fillColor=none;" parent="1" vertex="1">
                    <mxGeometry x="310" y="310" width="50" height="30" as="geometry"/>
                </mxCell>
                <mxCell id="25" value="&lt;font data-font-src=&quot;https://fonts.googleapis.com/css?family=Kanit&quot; face=&quot;Kanit&quot;&gt;False&lt;/font&gt;" style="text;html=1;align=center;verticalAlign=middle;resizable=0;points=[];autosize=1;strokeColor=none;fillColor=none;" parent="1" vertex="1">
                    <mxGeometry x="235" y="250" width="50" height="30" as="geometry"/>
                </mxCell>
                <mxCell id="27" value="" style="endArrow=classic;html=1;" edge="1" parent="1">
                    <mxGeometry width="50" height="50" relative="1" as="geometry">
                        <mxPoint x="440" y="210" as="sourcePoint"/>
                        <mxPoint x="320" y="210" as="targetPoint"/>
                    </mxGeometry>
                </mxCell>
                <mxCell id="30" value="" style="edgeStyle=none;html=1;entryX=0.5;entryY=0;entryDx=0;entryDy=0;" edge="1" parent="1" source="28" target="6">
                    <mxGeometry relative="1" as="geometry">
                        <mxPoint x="269" y="250" as="targetPoint"/>
                    </mxGeometry>
                </mxCell>
                <mxCell id="28" value="&lt;span style=&quot;font-family: Kanit;&quot;&gt;i = 1 , sum = 0&lt;/span&gt;" style="rounded=0;whiteSpace=wrap;html=1;" vertex="1" parent="1">
                    <mxGeometry x="255" y="150" width="120" height="40" as="geometry"/>
                </mxCell>
                <mxCell id="31" value="" style="endArrow=classic;html=1;entryX=0.5;entryY=0;entryDx=0;entryDy=0;" edge="1" parent="1" target="21">
                    <mxGeometry width="50" height="50" relative="1" as="geometry">
                        <mxPoint x="150" y="280" as="sourcePoint"/>
                        <mxPoint x="360" y="380" as="targetPoint"/>
                    </mxGeometry>
                </mxCell>
            </root>
        </mxGraphModel>
    </diagram>
</mxfile>